PathFileType	4	(X/Y/Z)	C:\Users\Basilio\Documents\Thesis Gigler\squatting_fais\c3dfiles\044\SLS_front_pre2\markers_experimental.trc
DataRate	CameraRate	NumFrames	NumMarkers	Units	OrigDataRate	OrigDataStartFrame	OrigNumFrames
200.000000	200.000000	4	60	mm	200.000000	405	1620
Frame#	Time	FHD			LBHD			RBHD			C7			T10			CLAV			LSHO			LUUPA			LMUPA			LDUPA			LLEP			LMEP			LRAD			LRFIN			RSHO			RUPA1			RMUPA			RDUPA			RLEP			RMEP			RUL			LASI			RASI			USACR			LSACR			RSACR			LTHI1			LTHI2			LTHI3			LTHI4			LLFC			LMFC			LTIB1			LTIB2			LTIB3			LTIB4			LLMAL			LMMAL			LHEE			LMT1			LMT2			LMT5			RTHI			RTHI2			RTHI3			RTHI4			RLFC			RMFC			RTIB1			RTIB2			RTIB3			RTIB4			RLMAL			RMMAL			RHEE			RMT1			RMT2			RMT5			RUFIN			LUL			
		X1	Y1	Z1	X2	Y2	Z2	X3	Y3	Z3	X4	Y4	Z4	X5	Y5	Z5	X6	Y6	Z6	X7	Y7	Z7	X8	Y8	Z8	X9	Y9	Z9	X10	Y10	Z10	X11	Y11	Z11	X12	Y12	Z12	X13	Y13	Z13	X14	Y14	Z14	X15	Y15	Z15	X16	Y16	Z16	X17	Y17	Z17	X18	Y18	Z18	X19	Y19	Z19	X20	Y20	Z20	X21	Y21	Z21	X22	Y22	Z22	X23	Y23	Z23	X24	Y24	Z24	X25	Y25	Z25	X26	Y26	Z26	X27	Y27	Z27	X28	Y28	Z28	X29	Y29	Z29	X30	Y30	Z30	X31	Y31	Z31	X32	Y32	Z32	X33	Y33	Z33	X34	Y34	Z34	X35	Y35	Z35	X36	Y36	Z36	X37	Y37	Z37	X38	Y38	Z38	X39	Y39	Z39	X40	Y40	Z40	X41	Y41	Z41	X42	Y42	Z42	X43	Y43	Z43	X44	Y44	Z44	X45	Y45	Z45	X46	Y46	Z46	X47	Y47	Z47	X48	Y48	Z48	X49	Y49	Z49	X50	Y50	Z50	X51	Y51	Z51	X52	Y52	Z52	X53	Y53	Z53	X54	Y54	Z54	X55	Y55	Z55	X56	Y56	Z56	X57	Y57	Z57	X58	Y58	Z58	X59	Y59	Z59	X60	Y60	Z60	

406	2.025	-227.1523895263672	1793.83154296875	-1044.00048828125	-362.4712524414063	1764.302368164063	-1118.122314453125	-404.6250610351564	1756.648803710938	-957.4172363281252	-428.3316345214845	1568.485107421875	-1043.851318359375	-416.6810913085939	1263.223754882813	-1030.0068359375	-288.1738281250001	1538.817260742188	-1034.5302734375	-326.5441589355469	1586.894897460938	-1184.222412109375	-150.7207794189453	1553.227416992188	-1260.696655273438	-128.7510223388672	1563.101318359375	-1216.3349609375	-83.3395462036133	1543.169921875	-1252.440307617188	-26.062406539917	1539.67822265625	-1236.51220703125	-42.70309448242188	1465.004638671875	-1220.440673828125	196.426010131836	1494.175537109375	-1046.07177734375	224.8557739257813	1559.318725585938	-994.2219238281252	-355.1829833984376	1580.505249023438	-878.216491699219	-204.1062011718751	1543.704833984375	-770.6164550781252	-172.3180236816407	1559.499267578125	-806.5596313476565	-134.8126983642578	1539.581298828125	-763.0231933593751	-73.38115692138673	1539.621215820313	-769.530212402344	-78.79687500000001	1460.843505859375	-785.9340820312502	192.2272949218751	1546.492553710938	-864.1047363281252	-216.0095977783204	1073.196044921875	-1102.8779296875	-235.7473602294922	1073.425659179688	-884.0386962890627	-396.8515625000001	1118.488525390625	-1008.909484863281	-396.6338806152345	1083.618408203125	-1033.310180664063	-404.7158203125001	1091.572265625	-976.7377929687502	-308.1277160644532	828.9448242187502	-1163.537963867188	-276.2105102539063	751.3173828125001	-1152.357299804688	-228.7914581298829	754.6964721679689	-1143.465087890625	-305.0475769042969	700.2455444335939	-1139.185668945313	-292.4946899414063	541.2388916015626	-1110.445068359375	-292.7704772949219	544.2965087890626	-988.3785400390627	-277.3020935058594	372.4060668945313	-1024.449951171875	-299.6838073730469	318.2891235351563	-1092.548828125	-271.4928283691407	320.3938903808594	-1054.270751953125	-291.2515869140626	245.0560607910157	-1019.433532714844	-343.3955688476563	128.0554809570313	-1058.978881835938	-325.2733154296876	137.9168090820313	-974.4932861328127	-408.0929565429689	111.3950881958008	-1008.431030273438	-203.3202056884766	62.55269622802736	-985.2044067382815	-200.7331237792969	65.84059906005861	-1031.804443359375	-237.5258941650391	51.02108001708986	-1078.447265625	-306.5777282714844	801.0749511718752	-795.4425048828127	-259.3630065917969	752.9475097656251	-788.4421386718752	-226.7677459716797	759.6091308593751	-793.191589355469	-271.9649047851563	670.5658569335939	-800.5664062500002	-257.8926696777344	557.2324218750001	-800.1763916015627	-257.8017272949219	541.7388305664064	-923.4568481445315	-204.7916717529297	430.5847473144532	-814.225524902344	-274.3827514648438	358.8925476074219	-766.4989013671876	-231.8549346923829	353.2927246093751	-781.6564941406252	-217.289779663086	301.1440734863282	-801.3967285156252	-272.7629394531251	143.0972442626953	-775.8745117187502	-252.2395629882813	149.6619720458985	-858.945983886719	-325.7978515625001	96.82615661621097	-819.9140625000002	-115.2530136108399	105.3440856933594	-840.6726074218752	-108.6997756958008	102.9865341186524	-804.1791992187502	-143.9417572021485	79.61254882812501	-752.2227172851564	217.8726348876954	1530.830444335938	-975.633728027344	214.5253295898438	1542.07861328125	-1095.141967773438	
407	2.03	-227.1630859375001	1793.881103515625	-1044.07958984375	-362.4688110351563	1764.312133789063	-1118.176635742188	-404.5992431640626	1756.745361328125	-957.5567016601565	-428.3129272460939	1568.425170898438	-1043.923461914063	-416.6392517089845	1263.2626953125	-1030.102172851563	-288.1726074218751	1538.866088867188	-1034.66064453125	-326.5253295898438	1586.958251953125	-1184.349365234375	-150.7693328857422	1553.199584960938	-1260.750244140625	-128.7474670410157	1563.11572265625	-1216.453735351563	-83.29426574707033	1543.24365234375	-1252.579833984375	-25.91858673095704	1539.62060546875	-1236.674194335938	-42.70487594604493	1465.087524414063	-1220.574096679688	196.3188934326172	1493.942260742188	-1046.273803710938	224.5755615234376	1559.818115234375	-994.4124755859377	-355.1216735839844	1580.568237304688	-878.3462524414065	-204.1175689697266	1543.807250976563	-770.6958618164065	-172.3061065673828	1559.525146484375	-806.6782836914065	-134.8128204345703	1539.733276367188	-763.1692504882814	-73.29525756835939	1539.620361328125	-769.6809082031252	-78.78169250488283	1460.842041015625	-786.0591430664065	192.2788085937501	1546.579956054688	-864.2282714843752	-216.3068084716797	1073.655517578125	-1102.772338867188	-235.7370605468751	1073.402954101563	-884.0455322265627	-396.8436279296876	1118.47998046875	-1009.015808105469	-396.6817932128907	1083.622680664063	-1033.379150390625	-404.7139587402345	1091.559814453125	-976.8115844726565	-308.1384887695313	829.0029907226565	-1163.540649414063	-276.1896667480469	751.2615966796876	-1152.354736328125	-228.7823791503907	754.6818237304689	-1143.528564453125	-305.0698852539063	700.2750854492189	-1139.21484375	-292.5162048339844	541.2599487304689	-1110.47900390625	-292.7195434570313	544.2246093750001	-988.413513183594	-277.2339172363282	372.4299621582032	-1024.52978515625	-299.6989440917969	318.2731018066407	-1092.604858398438	-271.4941101074219	320.3950195312501	-1054.286254882813	-291.2792053222657	245.0667724609376	-1019.45166015625	-343.4488525390626	128.0351867675782	-1058.982543945313	-325.1445007324219	137.7417144775391	-974.4880371093752	-408.1016540527345	111.3843688964844	-1008.418212890625	-203.3621826171876	62.56900024414064	-985.2401123046877	-200.8289489746094	65.7429885864258	-1031.769409179688	-237.5647583007813	51.0795135498047	-1078.4375	-306.4821166992188	801.0456542968752	-795.5443115234377	-259.3059387207032	753.0132446289064	-788.5334472656252	-226.7279663085938	759.6569213867189	-793.2737426757815	-271.8744201660157	670.6528930664064	-800.6675415039065	-257.8580017089844	557.2145996093751	-800.215759277344	-257.6661071777344	541.8142700195314	-923.5283203125002	-204.7356414794922	430.7119140625001	-814.391540527344	-274.2608337402344	358.8637084960938	-766.5358886718751	-231.7053833007813	353.3195495605469	-781.808532714844	-217.1892395019532	301.1675720214844	-801.546325683594	-272.7178649902344	143.0587921142578	-776.119323730469	-252.0344848632813	149.6793823242188	-859.1025390625002	-325.4486999511719	96.85160827636722	-820.2489013671877	-114.8403472900391	105.5662002563477	-840.6875610351565	-108.4334487915039	103.0408630371094	-804.265808105469	-143.9329681396485	79.75457763671876	-752.4834594726564	217.2381134033204	1532.371459960938	-975.780456542969	214.533920288086	1542.099243164063	-1095.21240234375	
408	2.035	-227.1700134277344	1793.919799804688	-1044.161376953125	-362.4880371093751	1764.199829101563	-1118.246704101563	-404.5896301269532	1756.772583007813	-957.6680297851565	-428.3091735839845	1568.412963867188	-1044.0224609375	-416.6417236328126	1263.279663085938	-1030.2080078125	-287.9742431640626	1538.894409179688	-1034.818237304688	-326.5484313964844	1586.92041015625	-1184.495239257813	-150.7092590332032	1553.157592773438	-1260.876098632813	-128.7252502441407	1563.168090820313	-1216.528686523438	-83.29296112060548	1543.21728515625	-1252.691772460938	-25.96925735473634	1539.793701171875	-1236.832885742188	-42.6884994506836	1465.124145507813	-1220.697265625	196.3325500488282	1493.970336914063	-1046.392578125	224.5839385986329	1559.839233398438	-994.4920654296877	-355.0656433105469	1580.549560546875	-878.4426879882815	-204.0998687744141	1543.80029296875	-770.912536621094	-172.176498413086	1559.633911132813	-806.8142700195315	-134.76416015625	1539.730224609375	-763.2795410156251	-73.21541595458986	1539.709716796875	-769.8615722656252	-78.77827453613283	1460.985107421875	-786.232604980469	192.3970642089844	1546.68310546875	-864.4284667968752	-216.0269622802735	1073.200805664063	-1102.935424804688	-235.7214660644532	1073.373901367188	-884.0068969726565	-396.8457336425782	1118.502563476563	-1009.045043945313	-396.6760253906251	1083.692626953125	-1033.413818359375	-404.6024169921876	1091.590942382813	-976.914978027344	-308.1227722167969	828.9716796875002	-1163.607543945313	-276.1119995117188	751.3682250976564	-1152.405395507813	-228.714828491211	754.6536865234376	-1143.55712890625	-305.0648193359376	700.3006591796876	-1139.2451171875	-292.5336914062501	541.2652587890626	-1110.518310546875	-292.6574707031251	544.1542358398439	-988.3865356445315	-277.3140258789063	372.3920898437501	-1024.576904296875	-299.7431030273438	318.2637023925782	-1092.641845703125	-271.5227355957032	320.4102172851563	-1054.340576171875	-291.2772216796876	245.0555114746094	-1019.463684082031	-343.4528198242188	128.0600280761719	-1059.031005859375	-325.1817321777344	137.8330688476563	-974.5242309570315	-408.1069641113282	111.4274368286133	-1008.441467285156	-203.3395080566407	62.62082672119142	-985.318054199219	-200.980453491211	65.62906646728517	-1031.794555664063	-237.5939636230469	51.02434539794923	-1078.481689453125	-306.4688110351563	801.0407714843752	-795.5478515625002	-259.1856689453126	752.9966430664064	-788.7379150390627	-226.7164154052735	759.6546630859376	-793.3773193359377	-271.8572692871094	670.6430053710939	-800.793395996094	-257.7908325195313	557.2227783203126	-800.2967529296877	-257.5973205566407	541.8283081054689	-923.6665649414065	-204.639144897461	430.6916809082032	-814.4954223632815	-274.2095336914063	358.8898010253907	-766.6851196289064	-231.6534423828126	353.3186950683594	-781.816101074219	-217.0694274902344	301.1583862304688	-801.8773193359377	-272.6345214843751	143.0768127441407	-776.2156982421877	-251.9706726074219	149.7805633544922	-859.241882324219	-325.4288635253907	96.94588470458987	-820.363952636719	-114.5554428100586	105.7433395385742	-840.686218261719	-108.339584350586	103.0499954223633	-804.323913574219	-143.6057891845703	79.8831253051758	-752.5852661132814	217.6481018066407	1532.344360351563	-975.9315185546877	214.5480499267579	1542.188110351563	-1095.354736328125	
409	2.04	-227.1862030029297	1793.972778320313	-1044.191772460938	-362.4900817871094	1764.383666992188	-1118.366333007813	-404.6201782226564	1756.791015625	-957.8442993164065	-428.2628173828126	1568.400146484375	-1044.143432617188	-416.6528320312501	1263.207397460938	-1030.25634765625	-287.9251403808594	1538.907836914063	-1034.928588867188	-326.5368957519532	1586.93505859375	-1184.603881835938	-150.7404327392578	1553.120239257813	-1260.9912109375	-128.7220916748047	1563.114013671875	-1216.68994140625	-83.32936096191408	1543.252319335938	-1252.77734375	-25.8957862854004	1539.771362304688	-1236.916748046875	-42.66577148437501	1465.151489257813	-1220.845092773438	196.4152374267579	1494.090942382813	-1046.536743164063	224.6367950439454	1559.584228515625	-994.4453125000002	-355.1562500000001	1580.609252929688	-878.523132324219	-204.085678100586	1543.849853515625	-770.9924926757815	-172.1432647705078	1559.692260742188	-806.9212036132815	-134.6300659179688	1539.623779296875	-763.3276977539064	-73.19721984863283	1539.723876953125	-770.0089111328127	-78.75695800781251	1460.96728515625	-786.310485839844	192.4376983642579	1546.688354492188	-864.5352783203127	-215.8897094726563	1073.296630859375	-1103	-235.7364044189454	1073.407592773438	-884.065612792969	-396.7369384765626	1118.010864257813	-1008.995422363281	-396.6421203613282	1083.697021484375	-1033.487915039063	-404.6043395996095	1091.6123046875	-976.991149902344	-308.1223754882813	829.007019042969	-1163.619995117188	-276.1133728027344	751.4123535156251	-1152.440185546875	-228.7436981201172	754.7141723632814	-1143.683349609375	-305.1167602539063	700.3054199218751	-1139.2373046875	-292.5031738281251	541.2705688476564	-1110.552490234375	-292.5846862792969	544.1232299804689	-988.4500122070315	-277.3097534179688	372.3975524902344	-1024.59130859375	-299.7485351562501	318.2828979492188	-1092.648315429688	-271.5183715820313	320.3838500976563	-1054.388427734375	-291.2838134765626	245.0787963867188	-1019.472045898438	-343.4660034179688	128.0264739990235	-1059.059814453125	-325.2276000976563	137.954833984375	-974.5687255859377	-408.0899658203126	111.4069213867188	-1008.431030273438	-203.4178924560547	62.57933044433595	-985.3037719726565	-200.8269042968751	65.70655822753908	-1031.776733398438	-237.9586944580079	50.51875686645509	-1078.44091796875	-306.3931884765626	800.9981079101565	-795.679626464844	-259.0990295410157	752.9926757812501	-788.5947875976565	-226.6779937744141	759.6341552734376	-793.4001464843752	-271.8475341796876	670.6342773437501	-800.8937988281252	-257.7467651367188	557.2438964843751	-800.3782348632815	-257.4335327148438	541.8801269531251	-923.7522583007815	-204.4703369140626	430.6765441894532	-814.6291503906252	-274.0096130371094	358.8416137695313	-766.7703857421876	-231.5872955322266	353.2641296386719	-781.8362426757815	-217.0518951416016	301.3573303222657	-802.829528808594	-272.5218811035157	143.1060638427735	-776.2843017578127	-251.7755737304688	149.6872711181641	-859.5125122070315	-325.4236450195313	96.91559600830081	-820.454528808594	-114.2597427368164	105.8552856445313	-840.9232177734377	-108.1201248168946	103.1498489379883	-804.4691162109377	-143.4818420410157	79.95526123046876	-752.8162841796876	217.5124816894532	1532.444702148438	-976.0545654296877	214.5517272949219	1542.21484375	-1095.472778320313	
